<?xml version="1.0" encoding="utf-8"?>
<!-- Generator: Adobe Illustrator 23.0.0, SVG Export Plug-In . SVG Version: 6.00 Build 0)  -->
<svg version="1.1" id="Ebene_1" xmlns="http://www.w3.org/2000/svg" xmlns:xlink="http://www.w3.org/1999/xlink" x="0px" y="0px"
	 viewBox="0 0 290.2 109.3" style="enable-background:new 0 0 290.2 109.3;" xml:space="preserve">
<style type="text/css">
	.st0{fill:#E0E0E0;}
	.st1{fill:#050304;}
</style>
<g>
	<path class="st0" d="M276.4,35.6c0-12.6-9.7-22.5-22.2-22.5c-12.4,0-22.1,9.9-22.1,22.5c0,12.7,9.7,22.6,22.1,22.6
		C266.7,58.2,276.4,48.3,276.4,35.6 M218.2,35.6c0-20,15.8-35.6,36-35.6c20.3,0,36.1,15.6,36.1,35.6c0,20.1-15.8,35.7-36.1,35.7
		C234,71.3,218.2,55.7,218.2,35.6"/>
	<path class="st0" d="M268.2,109.3c0.6,0,1.3,0,1.9-0.1c7.3-0.8,13.7-6.2,18.9-16.1c1.7-3.2,0.5-7.1-2.7-8.8
		c-3.2-1.7-7.1-0.5-8.8,2.7c-3,5.7-6.2,9-9,9.3c-2.7,0.3-6.1-2.6-9.6-5.8c-5-4.4-11.2-9.9-19.7-9c-7.5,0.8-14.1,6.3-19.6,16.4
		c-1.7,3.1-0.6,7.1,2.6,8.8c3.1,1.7,7.1,0.6,8.8-2.6c3.3-6,6.7-9.4,9.6-9.7c2.9-0.3,6.3,2.7,9.9,5.9
		C255.1,104.3,260.7,109.3,268.2,109.3"/>
	<g>
		<g>
			<polygon class="st1" points="30.3,21.7 40.5,0.7 20.2,0.7 			"/>
			<polygon class="st1" points="20.9,36.4 27.6,36.4 20.9,22.9 			"/>
			<polygon class="st1" points="39.2,36.4 39.2,22.9 32.5,36.4 			"/>
			<path class="st1" d="M72.4,49.4H60.1v-3.6h11.1v-9.3h10.3l1.5-4.8h10.5l1.4,4.8h12.4L93.5,0.7H84L70.4,36.1H60.1V23.3h3.6
				c7,0,11.5-5.3,11.5-11.3S70.7,0.7,63.7,0.7H49.5v35.7h0v35.3h10.6V58h12.3V49.4z M88.4,14.4l2.7,9h-5.5L88.4,14.4z M60.1,9.6h2.2
				c1.5,0,2.7,1,2.7,2.6c0,1.6-1.2,2.6-2.7,2.6h-2.2V9.6z"/>
			<path class="st1" d="M84,36.1L70.3,71.8h11.2L83,67h10.5l1.4,4.8h12.4L93.5,36.1H84z M85.6,58.7l2.8-9l2.7,9H85.6z"/>
			<path class="st1" d="M186.8,35.3c-10.6,0-18.9,8.1-18.9,18.6c0,10.5,8.3,18.6,18.9,18.6c10.6,0,18.9-8.1,18.9-18.6
				C205.7,43.5,197.5,35.3,186.8,35.3z M186.8,62.5c-4.7,0-8.3-3.8-8.3-8.6c0-4.8,3.6-8.6,8.3-8.6c4.7,0,8.3,3.8,8.3,8.6
				C195.2,58.7,191.5,62.5,186.8,62.5z"/>
			<path class="st1" d="M233.4,47.5c0-6-4.5-11.4-11.6-11.4h-14.2v35.7h10.6V58.7l7.3,13.1h11.8l-8.8-15
				C231.6,54.7,233.4,51.2,233.4,47.5z M219.8,51.4h-1.6V45h1.6c1.9,0,3.3,1.3,3.3,3.3C223.1,50.1,221.6,51.4,219.8,51.4z"/>
			<polygon class="st1" points="254.3,36.1 249.8,45.6 245.2,36.1 232.9,36.1 243.9,56.2 243.9,71.8 254.4,71.8 254.4,56.2 
				265.4,36.1 			"/>
			<rect y="0.7" class="st1" width="10.6" height="35.7"/>
			<path class="st1" d="M123.4,10c3.3,0,5.9,2,7.5,4.7l8.3-5.9c-3.5-5.4-8.9-8.9-15.8-8.9c-10.6,0-18.9,8.1-18.9,18.6
				c0,8.4,5.3,15.3,12.9,17.7c-7.6,2.4-12.9,9.3-12.9,17.6c0,10.5,8.3,18.6,18.9,18.6c6.7,0,12.1-3.3,15.6-8.5l-8.4-5.8
				c-1.7,2.5-4.1,4.3-7.2,4.3c-4.7,0-8.3-3.8-8.3-8.6c0-4.8,3.6-8.6,8.3-8.6c3.3,0,5.9,2,7.5,4.7l8.3-5.9c-2.4-3.8-5.8-6.6-10-8
				c4-1.3,7.3-4,9.8-7.6l-8.4-5.8c-1.7,2.5-4.1,4.3-7.2,4.3c-4.7,0-8.3-3.8-8.3-8.6C115.1,13.8,118.7,10,123.4,10z"/>
			<polygon class="st1" points="159,10.7 167.2,10.7 167.2,0.7 140.2,0.7 140.2,10.7 148.4,10.7 148.4,36.1 140.2,36.1 140.2,46.1 
				148.4,46.1 148.4,71.8 159,71.8 159,46.1 167.2,46.1 167.2,36.1 159,36.1 			"/>
		</g>
	</g>
</g>
</svg>
