<svg width="908" height="168" xmlns="http://www.w3.org/2000/svg" xmlns:xlink="http://www.w3.org/1999/xlink" overflow="hidden"><defs><clipPath id="clip0"><rect x="0" y="200" width="908" height="168"/></clipPath><clipPath id="clip1"><rect x="0" y="200" width="907" height="167"/></clipPath><clipPath id="clip2"><rect x="0" y="200" width="907" height="167"/></clipPath><clipPath id="clip3"><rect x="0" y="200" width="907" height="167"/></clipPath></defs><g clip-path="url(#clip0)" transform="matrix(1 0 0 1 0 -200)"><g clip-path="url(#clip1)"><g clip-path="url(#clip2)"><g clip-path="url(#clip3)"><path d="M0 0 0 44.3745 81.7867 22.2391ZM-136.823 21.8957C-136.823 67.8336-99.5859 105.071-53.6515 105.071-7.71715 105.071 29.5198 67.8336 29.5198 21.8957 29.5198-24.0423-7.71715-61.2792-53.6515-61.2792-99.5859-61.2792-136.823-24.0423-136.823 21.8957M-23.7632 0.468682C-29.7988-8.20729-39.4444-14.1785-50.5246-15.2769-65.1074-16.7223-66.5027-7.78512-66.5027 9.13035L-66.5027 33.5805C-66.5027 50.6927-65.8909 58.4349-50.8144 58.4349-43.8879 58.4349-40.4211 57.011-40.4211 53.7445-40.4211 51.5049-46.7394 49.0649-46.7394 41.3227-46.7394 33.1691-41.6447 27.6665-32.8828 27.6665-25.3446 27.6665-19.842 33.1691-19.842 40.7073-19.842 47.3655-23.4233 53.2723-29.3588 57.3294-36.4069 62.2488-44.9827 65.1324-54.2275 65.1324-78.2662 65.1324-97.7577 45.641-97.7577 21.6023-97.7577-2.44358-78.2662-21.9314-54.2275-21.9314-39.4086-21.9314-26.3106-14.5256-18.4467-3.20922Z" fill="#D7154D" fill-rule="evenodd" fill-opacity="1" transform="matrix(1 0 0 -1.00377 136.823 305.483)"/><path d="M0 0C-0.160997 0.160997-0.379239 0.429327-0.543814 0.429327-0.919475 0.429327-3.94623-2.75842-7.08031-2.75842-12.5972-2.75842-14.7581 3.78523-14.7581 13.785-14.7581 22.9761-13.2984 28.5466-7.45955 28.5466-4.32189 28.5466-1.29514 25.3553-0.919475 25.3553-0.701234 25.3553-0.543814 25.57-0.379239 25.7882L0.754899 27.2479C0.97314 27.5163 1.08047 27.7345 1.08047 28.0028 1.08047 28.8686-2.81209 32.1673-7.56688 32.1673-16.9763 32.1673-19.6274 23.5164-19.6274 13.2447-19.6274 2.05003-16.3788-6.37908-7.19122-6.37908-2.43285-6.37908 1.45971-3.084 1.45971-2.21819 1.45971-1.94628 1.3488-1.72804 1.13414-1.45971Z" fill="#231F20" fill-rule="evenodd" fill-opacity="1" transform="matrix(1 0 0 -1.00377 269.176 294.204)"/><path d="M0 0C-0.869386-0.758477-3.35233-3.35233-6.16442-3.35233-8.92284-3.35233-10.1142-0.923052-10.1142 1.24505-10.1142 6.91931-2.37919 6.91931 0 6.97298ZM4.10722 13.1911C4.10722 17.7312 1.99995 20.7615-4.21813 20.7615-7.67779 20.7615-12.6508 19.1873-12.6508 18.2714-12.6508 17.9995-12.5972 17.8385-12.4898 17.5666L-11.785 15.6776C-11.7314 15.513-11.5739 15.4092-11.4094 15.4092-10.9228 15.4092-8.43269 17.1373-4.81204 17.1373-0.976718 17.1373 0 15.4092 0 12.2716L0 10.3253C-3.35233 10.2144-14.1642 10.057-14.1642 0.915897-14.1642-3.89256-11.4094-6.70465-7.13756-6.70465-2.65109-6.70465 0-3.67432 0.647568-3.08042 0.915897-3.8389 1.88904-6.70465 2.70118-6.70465 2.81209-6.70465 2.91584-6.65099 3.13408-6.54008L5.24136-5.24852C5.4596-5.13761 5.73151-5.03028 5.73151-4.81561 5.73151-4.49004 4.97303-3.45966 4.75479-2.81209 4.26822-1.29871 4.10722-0.812143 4.10722 2.59385Z" fill="#231F20" fill-rule="evenodd" fill-opacity="1" transform="matrix(1 0 0 -1.00377 288.42 293.878)"/><path d="M0 0C0-0.429327 0.218241-0.647568 0.651145-0.647568L3.45966-0.647568C3.89256-0.647568 4.1108-0.429327 4.1108 0L4.1108 20.1676C5.03028 20.9261 6.92289 22.4359 9.35574 22.4359 12.2752 22.4359 12.8691 20.3823 12.8691 18.0603L12.8691 0C12.8691-0.429327 13.0873-0.647568 13.5166-0.647568L16.3287-0.647568C16.7616-0.647568 16.9763-0.429327 16.9763 0L16.9763 20.2177C18.0568 20.9762 19.6775 22.4359 22.2749 22.4359 25.1407 22.4359 25.731 20.3823 25.731 18.0603L25.731 0C25.731-0.429327 25.9492-0.647568 26.3857-0.647568L29.1978-0.647568C29.6271-0.647568 29.8418-0.429327 29.8418 0L29.8418 17.9494C29.8418 21.8384 29.4125 26.0601 23.409 26.0601 20.8116 26.0601 17.8958 24.0065 16.2715 22.8151 15.5702 24.9761 14.0569 26.0601 10.54 26.0601 8.27169 26.0601 4.91937 24.1675 3.5169 22.8688 3.45966 23.248 2.86576 26.0601 2.05361 26.0601 1.89261 26.0601 1.67795 25.8956 1.57062 25.8455L-0.758477 24.5432C-0.97314 24.3822-1.02681 24.2748-1.02681 24.1675-1.02681 23.8956-0.593902 23.5736-0.321995 22.3286-0.0500881 21.0871 0 19.7848 0 18.5433Z" fill="#231F20" fill-rule="evenodd" fill-opacity="1" transform="matrix(1 0 0 -1.00377 301.443 299.198)"/><path d="M0 0C0 0.268329 0 0.701234-0.382816 0.701234-0.758477 0.651145-0.59748 0.701234-1.02681 0.59748L-3.73156-0.0536658C-3.94981-0.107332-4.1108-0.325573-4.1108-0.701234L-4.1108-31.8417C-4.1108-33.5733-4.49004-34.8148-4.97661-35.6842-5.35227-36.5965-5.78518-36.9793-5.78518-37.2477-5.78518-37.5196-5.40594-37.6806-4.97661-37.9489L-3.62423-38.8183C-3.40957-38.9793-3.084-39.1939-2.86933-39.1939-2.27185-39.1939-1.40962-37.3049-1.13414-36.5464 0.593902-38.2208 2.59743-39.1939 6.37908-39.1939 13.5667-39.1939 15.6239-31.6235 15.6239-23.8384 15.6239-17.1945 13.4057-11.7278 6.86207-11.7278 4.37913-11.7278 1.45613-12.9728 0-14.4898ZM0-18.0568C2.21461-16.5434 3.24142-15.352 6.37908-15.352 10.7582-15.352 11.1911-19.5701 11.1911-23.7346 11.1911-29.3552 10.701-35.5697 5.6206-35.5697 3.24142-35.5697 1.24147-34.3819 7.94415e-16-33.5161Z" fill="#231F20" fill-rule="evenodd" fill-opacity="1" transform="matrix(1 0 0 -1.00377 344.476 261.266)"/><path d="M0 0C1.29871 1.40604 3.19133 4.21456 5.08394 4.21456 6.10717 4.21456 6.59374 3.72799 6.86565 3.72799 7.08031 3.72799 7.13398 3.99632 7.18764 4.10722L8.37903 6.86207C8.43269 7.02665 8.5436 7.19122 8.5436 7.29498 8.5436 7.78512 7.13398 8.21803 5.89251 8.21803 2.75842 8.21803 0.808565 5.1877-0.59748 3.67432-0.812143 4.86212-1.72804 8.21803-2.70476 8.21803-2.81567 8.21803-3.02675 8.10712-3.24499 7.94612L-5.24494 6.70107C-5.35227 6.64383-5.57051 6.48283-5.6206 6.16442-5.6206 5.99984-5.4596 5.57051-5.0267 4.80846-4.26822 3.45966-4.1108 1.67437-4.1108 0.697656L-4.1108-17.8421C-4.1108-18.2714-3.89256-18.4897-3.45966-18.4897L-0.651145-18.4897C-0.218241-18.4897 -1.98604e-16-18.2714 -1.98604e-16-17.8421Z" fill="#231F20" fill-rule="evenodd" fill-opacity="1" transform="matrix(1 0 0 -1.00377 371.563 281.288)"/><path d="M0 0C-0.865809-0.758477-3.35233-3.35233-6.16084-3.35233-8.91926-3.35233-10.1106-0.923052-10.1106 1.24505-10.1106 6.91931-2.37919 6.91931 0 6.97298ZM4.1108 13.1911C4.1108 17.7312 1.99995 20.7615-4.21813 20.7615-7.67779 20.7615-12.6508 19.1873-12.6508 18.2714-12.6508 17.9995-12.5972 17.8385-12.4862 17.5666L-11.7814 15.6776C-11.7314 15.513-11.5704 15.4092-11.4058 15.4092-10.9228 15.4092-8.43269 17.1373-4.81204 17.1373-0.969563 17.1373 0 15.4092 0 12.2716L0 10.3253C-3.35233 10.2144-14.1606 10.057-14.1606 0.915897-14.1606-3.89256-11.4058-6.70465-7.13398-6.70465-2.64751-6.70465 -7.94415e-16-3.67432 0.651145-3.08042 0.919475-3.8389 1.89261-6.70465 2.70476-6.70465 2.81567-6.70465 2.923-6.65099 3.13766-6.54008L5.24494-5.24852C5.4596-5.13761 5.73151-5.03028 5.73151-4.81561 5.73151-4.49004 4.97661-3.45966 4.75837-2.81209 4.2718-1.29871 4.1108-0.812143 4.1108 2.59385Z" fill="#231F20" fill-rule="evenodd" fill-opacity="1" transform="matrix(1 0 0 -1.00377 395.566 293.878)"/><path d="M0 0C0 0.268329 0 0.701234-0.432904 0.701234-0.812143 0.651145-0.647568 0.701234-1.08047 0.59748L-3.72799-0.0536658C-3.94623-0.107332-4.10722-0.325573-4.10722-0.701234L-4.10722-13.5667C-5.57051-12.6508-7.40588-11.7278-10.7582-11.7278-17.03-11.7278-19.7884-18.2213-19.7884-26.0065-19.7884-32.7075-17.1373-39.1939-11.3521-39.1939-7.35222-39.1939-4.70113-36.9221-3.40599-36.0026-3.19133-36.872-2.21461-39.1939-1.45971-39.1939-1.35238-39.1939-1.24505-39.1403-1.02681-39.0294L1.08047-37.7378C1.29514-37.6269 1.56704-37.5196 1.56704-37.3049 1.56704-36.9793 0.865809-35.949 0.593902-35.3014 0-33.949 0-32.3283 0-29.8954ZM-4.10722-32.3855C-5.40594-33.1941-7.78512-35.5697-10.5972-35.5697-14.9763-35.5697-15.3556-30.4357-15.3556-25.892-15.3556-20.6506-14.9227-15.352-10.2716-15.352-7.56688-15.352-5.83884-16.2178-4.10722-17.1373Z" fill="#231F20" fill-rule="evenodd" fill-opacity="1" transform="matrix(1 0 0 -1.00377 442.484 261.266)"/><path d="M0 0C-0.110909 0.164575-0.160997 0.325573-0.325573 0.325573-0.651145 0.325573-3.45966-1.88904-6.97298-1.88904-13.1374-1.88904-14.4361 4.05714-14.4361 7.3558L1.08047 7.3558C1.67795 7.3558 1.67795 7.7887 1.67795 8.5436 1.67795 13.1946 0.865809 21.9529-8.16078 21.9529-14.869 21.9529-18.8653 16.1677-18.8653 8.21803-18.8653 0-14.6508-5.4596-7.45955-5.51327-3.45966-5.51327 1.08047-3.29866 1.08047-2.70118 1.08047-2.54018 0.97314-2.43285 0.915897-2.26828ZM-14.4361 10.7045C-14.4361 13.4057-13.3521 18.597-8.37903 18.597-3.67432 18.597-2.75842 13.5166-2.75842 10.7045Z" fill="#231F20" fill-rule="evenodd" fill-opacity="1" transform="matrix(1 0 0 -1.00377 467.142 295.074)"/><path d="M0 0C-0.160997 0.160997-0.379239 0.429327-0.543814 0.429327-0.919475 0.429327-3.94981-2.75842-7.08031-2.75842-12.5972-2.75842-14.7581 3.78523-14.7581 13.785-14.7581 22.9761-13.2984 28.5466-7.46313 28.5466-4.32547 28.5466-1.29514 25.3553-0.919475 25.3553-0.701234 25.3553-0.543814 25.57-0.379239 25.7882L0.751322 27.2479C0.969563 27.5163 1.08047 27.7345 1.08047 28.0028 1.08047 28.8686-2.81209 32.1673-7.56688 32.1673-16.9763 32.1673-19.6274 23.5164-19.6274 13.2447-19.6274 2.05003-16.3788-6.37908-7.19122-6.37908-2.43285-6.37908 1.45971-3.084 1.45971-2.21819 1.45971-1.94628 1.3488-1.72804 1.13414-1.45971Z" fill="#231F20" fill-rule="evenodd" fill-opacity="1" transform="matrix(1 0 0 -1.00377 509.466 294.204)"/><path d="M0 0C-4.97661 0-6.37908 4.59737-6.37908 10.7618-6.37908 16.1141-4.91937 20.7615-0.0572436 20.7615 4.81204 20.7615 6.26459 15.8958 6.26459 10.5972 6.26459 4.38271 4.81204 0 0 0M10.7045 10.5435C10.7045 18.1677 7.56688 24.1138 0.160997 24.1138-7.67779 24.1138-10.8119 17.7348-10.8119 10.2716-10.8119 2.54376-7.67779-3.35233-0.382816-3.35233 7.51322-3.35233 10.7045 2.97309 10.7045 10.5435" fill="#231F20" fill-rule="evenodd" fill-opacity="1" transform="matrix(1 0 0 -1.00377 525.631 297.245)"/><path d="M0 0C0-0.429327 0.218241-0.647568 0.651145-0.647568L3.45966-0.647568C3.89256-0.647568 4.10722-0.429327 4.10722 0L4.10722 20.1676C5.0267 20.9261 6.91931 22.4359 9.35217 22.4359 12.2716 22.4359 12.8655 20.3823 12.8655 18.0603L12.8655 0C12.8655-0.429327 13.0837-0.647568 13.5131-0.647568L16.3251-0.647568C16.7581-0.647568 16.9763-0.429327 16.9763 0L16.9763 20.2177C18.0532 20.9762 19.6775 22.4359 22.2713 22.4359 25.1371 22.4359 25.7346 20.3823 25.7346 18.0603L25.7346 0C25.7346-0.429327 25.9528-0.647568 26.3857-0.647568L29.1942-0.647568C29.6271-0.647568 29.8454-0.429327 29.8454 0L29.8454 17.9494C29.8454 21.8384 29.4125 26.0601 23.4055 26.0601 20.8152 26.0601 17.8922 24.0065 16.2751 22.8151 15.5667 24.9761 14.0569 26.0601 10.5435 26.0601 8.27527 26.0601 4.91937 24.1675 3.51332 22.8688 3.45966 23.248 2.86218 26.0601 2.05361 26.0601 1.89261 26.0601 1.67437 25.8956 1.56704 25.8455L-0.754899 24.5432C-0.969563 24.3822-1.02681 24.2748-1.02681 24.1675-1.02681 23.8956-0.59748 23.5736-0.321995 22.3286-0.0536658 21.0871 0 19.7848 0 18.5433Z" fill="#231F20" fill-rule="evenodd" fill-opacity="1" transform="matrix(1 0 0 -1.00377 543.741 299.198)"/><path d="M0 0C-0.107332 0.164575-0.160997 0.325573-0.325573 0.325573-0.651145 0.325573-3.45966-1.88904-6.97656-1.88904-13.1374-1.88904-14.4361 4.05714-14.4361 7.3558L1.08405 7.3558C1.67795 7.3558 1.67795 7.7887 1.67795 8.5436 1.67795 13.1946 0.865809 21.9529-8.16078 21.9529-14.8654 21.9529-18.8689 16.1677-18.8689 8.21803-18.8689 0-14.6508-5.4596-7.45955-5.51327-3.45966-5.51327 1.08405-3.29866 1.08405-2.70118 1.08405-2.54018 0.969563-2.43285 0.919475-2.26828ZM-14.4361 10.7045C-14.4361 13.4057-13.3556 18.597-8.37903 18.597-3.6779 18.597-2.75842 13.5166-2.75842 10.7045Z" fill="#231F20" fill-rule="evenodd" fill-opacity="1" transform="matrix(1 0 0 -1.00377 598.287 295.074)"/><path d="M0 0C1.29871 1.40604 3.19491 4.21456 5.08394 4.21456 6.11075 4.21456 6.59374 3.72799 6.86923 3.72799 7.08389 3.72799 7.13756 3.99632 7.19122 4.10722L8.3826 6.86207C8.43269 7.02665 8.5436 7.19122 8.5436 7.29498 8.5436 7.78512 7.13756 8.21803 5.89251 8.21803 2.75842 8.21803 0.812143 5.1877-0.593902 3.67432-0.812143 4.86212-1.72804 8.21803-2.70118 8.21803-2.81209 8.21803-3.02675 8.10712-3.24499 7.94612L-5.24136 6.70107C-5.35227 6.64383-5.56694 6.48283-5.6206 6.16442-5.6206 5.99984-5.45603 5.57051-5.03028 4.80846-4.2718 3.45966-4.10722 1.67437-4.10722 0.697656L-4.10722-17.8421C-4.10722-18.2714-3.89256-18.4897-3.45966-18.4897L-0.647568-18.4897C-0.218241-18.4897 -1.98604e-16-18.2714 -1.98604e-16-17.8421Z" fill="#231F20" fill-rule="evenodd" fill-opacity="1" transform="matrix(1 0 0 -1.00377 610.881 281.288)"/><path d="M0 0C0.0536658 0.164575 0.160997 0.271907 0.160997 0.432904 0.160997 1.24505-3.99989 3.78881-7.62055 3.78881-14.2715 3.78881-18.597-1.72804-18.597-10.7582-18.597-18.3788-15.2411-22.7579-10.4362-23.57L-10.8333-26.7721C-10.8655-27.0476-10.8655-27.3195-10.8655-27.4841-10.8655-28.9939-6.64741-27.4841-6.64741-29.4769-6.64741-30.3355-7.51679-30.704-8.81193-30.704-10.5972-30.704-11.4058-30.2783-11.624-30.2783-11.7314-30.2783-11.8923-30.3856-11.8923-30.5466L-12.107-32.1637C-12.1643-32.3283-12.1643-32.4356-12.1643-32.5966-12.1643-33.2478-10.2716-33.6234-8.91926-33.6234-6.37908-33.6234-3.34875-32.2746-3.34875-29.3695-3.34875-26.3356-5.94617-26.0637-7.51679-25.849L-7.29855-23.6774C-3.72799-23.409 0.110909-21.2982 0.110909-20.8653 0.110909-20.7043 4.96509e-16-20.5969-0.0500881-20.4324L-0.97314-18.1641C-1.07689-17.9995-1.13414-17.8385-1.29514-17.8385-1.62071-17.8385-4.4328-20.0531-7.9497-20.0531-13.1946-20.0531-14.1642-14.8654-14.1642-9.94607-14.1642-3.73156-12.6616 0.164575-7.29855 0.164575-4.10722 0.164575-1.78528-2.59385-1.56704-2.59385-1.40247-2.59385-1.3488-2.43285-1.24147-2.27185Z" fill="#231F20" fill-rule="evenodd" fill-opacity="1" transform="matrix(1 0 0 -1.00377 640.776 276.841)"/><path d="M0 0C0 0.268329 0 0.701234-0.432904 0.701234-0.808565 0.651145-0.647568 0.701234-1.08047 0.59748L-3.72799-0.0536658C-3.94981-0.107332-4.10722-0.325573-4.10722-0.701234L-4.10722-13.5667C-5.56694-12.6508-7.40588-11.7278-10.7618-11.7278-17.0264-11.7278-19.7884-18.2213-19.7884-26.0065-19.7884-32.7075-17.1409-39.1939-11.3557-39.1939-7.35222-39.1939-4.70113-36.9221-3.40599-36.0026-3.19133-36.872-2.21819-39.1939-1.45971-39.1939-1.35238-39.1939-1.24147-39.1403-1.02681-39.0294L1.08047-37.7378C1.29514-37.6269 1.56346-37.5196 1.56346-37.3049 1.56346-36.9793 0.865809-35.949 0.59748-35.3014 0-33.949 0-32.3283 0-29.8954ZM-4.10722-32.3855C-5.40952-33.1941-7.78155-35.5697-10.5972-35.5697-14.9728-35.5697-15.3556-30.4357-15.3556-25.892-15.3556-20.6506-14.9227-15.352-10.2716-15.352-7.57046-15.352-5.84242-16.2178-4.10722-17.1373Z" fill="#231F20" fill-rule="evenodd" fill-opacity="1" transform="matrix(1 0 0 -1.00377 680.768 261.266)"/><path d="M0 0C-0.107332 0.164575-0.164575 0.325573-0.325573 0.325573-0.647568 0.325573-3.45966-1.88904-6.97656-1.88904-13.1374-1.88904-14.4361 4.05714-14.4361 7.3558L1.08047 7.3558C1.67437 7.3558 1.67437 7.7887 1.67437 8.5436 1.67437 13.1946 0.865809 21.9529-8.16436 21.9529-14.8654 21.9529-18.8689 16.1677-18.8689 8.21803-18.8689 0-14.6544-5.4596-7.45597-5.51327-3.45966-5.51327 1.08047-3.29866 1.08047-2.70118 1.08047-2.54018 0.969563-2.43285 0.919475-2.26828ZM-14.4361 10.7045C-14.4361 13.4057-13.3521 18.597-8.37903 18.597-3.6779 18.597-2.75842 13.5166-2.75842 10.7045Z" fill="#231F20" fill-rule="evenodd" fill-opacity="1" transform="matrix(1 0 0 -1.00377 705.425 295.074)"/><path d="M0 0C0.0536658 0.218241 0.218241 0.490148 0.218241 0.651145 0.218241 0.812143 0.0536658 1.08405-0.218241 1.24505-0.97314 1.62071-4.4328 3.57057-8.76184 3.57057-14.3824 3.57057-19.5165 0.107332-19.5165-6.10717-19.5165-17.2983-3.73156-15.9459-3.73156-24.9224-3.73156-28.5466-6.11075-31.0832-10.1643-31.0832-13.9495-31.0832-17.2482-29.298-18.3287-28.815-18.6006-28.654-18.8689-28.5466-19.0836-28.5466-19.4091-28.5466-19.5165-28.815-19.6775-29.2479L-20.3823-31.0332C-20.4395-31.2478-20.6005-31.5197-20.6005-31.6807-20.6005-31.9491-20.4395-32.1637-20.1676-32.2746-19.3555-32.6539-15.3556-34.9758-10.3289-34.9758-3.73156-34.9758 1.13414-30.9759 1.13414-24.3786 1.13414-20.8116-0.325573-18.2714-3.24142-15.8922-7.57046-12.3253-14.6544-11.2984-14.6544-5.6206-14.6544-1.99995-12.1643-0.321995-8.91926-0.321995-5.84242-0.321995-3.084-1.67795-2.05719-2.21461-1.78886-2.37561-1.51695-2.48652-1.29871-2.48652-0.919475-2.48652-0.919475-2.21461-0.704811-1.78171Z" fill="#231F20" fill-rule="evenodd" fill-opacity="1" transform="matrix(1 0 0 -1.00377 747.21 265.499)"/><path d="M0 0C-0.865809-0.758477-3.35233-3.35233-6.16442-3.35233-8.91926-3.35233-10.1106-0.923052-10.1106 1.24505-10.1106 6.91931-2.37561 6.91931 0 6.97298ZM4.10722 13.1911C4.10722 17.7312 1.99995 20.7615-4.21813 20.7615-7.67779 20.7615-12.6472 19.1873-12.6472 18.2714-12.6472 17.9995-12.5972 17.8385-12.4898 17.5666L-11.785 15.6776C-11.7314 15.513-11.5668 15.4092-11.4058 15.4092-10.9228 15.4092-8.43627 17.1373-4.81204 17.1373-0.969563 17.1373 0 15.4092 0 12.2716L0 10.3253C-3.35233 10.2144-14.1642 10.057-14.1642 0.915897-14.1642-3.89256-11.4058-6.70465-7.13756-6.70465-2.65109-6.70465 0-3.67432 0.651145-3.08042 0.919475-3.8389 1.89261-6.70465 2.70118-6.70465 2.81209-6.70465 2.91942-6.65099 3.13766-6.54008L5.24494-5.24852C5.4596-5.13761 5.72793-5.03028 5.72793-4.81561 5.72793-4.49004 4.97661-3.45966 4.75837-2.81209 4.26822-1.29871 4.10722-0.812143 4.10722 2.59385Z" fill="#231F20" fill-rule="evenodd" fill-opacity="1" transform="matrix(1 0 0 -1.00377 766.994 293.878)"/><path d="M0 0C0 0.268329 0 0.701234-0.379239 0.701234-0.754899 0.651145-0.59748 0.701234-1.02681 0.59748L-3.72799-0.0536658C-3.94623-0.107332-4.1108-0.325573-4.1108-0.701234L-4.1108-31.8417C-4.1108-33.5733-4.49004-34.8148-4.97303-35.6842-5.35227-36.5965-5.78518-36.9793-5.78518-37.2477-5.78518-37.5196-5.40594-37.6806-4.97303-37.9489L-3.62423-38.8183C-3.40957-38.9793-3.084-39.1939-2.86576-39.1939-2.26828-39.1939-1.40604-37.3049-1.13772-36.5464 0.593902-38.2208 2.59385-39.1939 6.3755-39.1939 13.5667-39.1939 15.6203-31.6235 15.6203-23.8384 15.6203-17.1945 13.4093-11.7278 6.86207-11.7278 4.37913-11.7278 1.45613-12.9728 0-14.4898ZM0-18.0568C2.21819-16.5434 3.24499-15.352 6.3755-15.352 10.7546-15.352 11.1875-19.5701 11.1875-23.7346 11.1875-29.3552 10.701-35.5697 5.62418-35.5697 3.24499-35.5697 1.24147-34.3819 -7.94415e-16-33.5161Z" fill="#231F20" fill-rule="evenodd" fill-opacity="1" transform="matrix(1 0 0 -1.00377 784.021 261.266)"/><path d="M0 0C-0.862231-0.758477-3.35233-3.35233-6.16442-3.35233-8.92284-3.35233-10.1106-0.923052-10.1106 1.24505-10.1106 6.91931-2.37919 6.91931 0 6.97298ZM4.10722 13.1911C4.10722 17.7312 2.00352 20.7615-4.21813 20.7615-7.67779 20.7615-12.6508 19.1873-12.6508 18.2714-12.6508 17.9995-12.5972 17.8385-12.4862 17.5666L-11.785 15.6776C-11.7278 15.513-11.5704 15.4092-11.4094 15.4092-10.9192 15.4092-8.43269 17.1373-4.81204 17.1373-0.97314 17.1373 0 15.4092 0 12.2716L0 10.3253C-3.35233 10.2144-14.1642 10.057-14.1642 0.915897-14.1642-3.89256-11.4094-6.70465-7.13756-6.70465-2.64751-6.70465 0-3.67432 0.651145-3.08042 0.915897-3.8389 1.89261-6.70465 2.70476-6.70465 2.81209-6.70465 2.91942-6.65099 3.13766-6.54008L5.24136-5.24852C5.4596-5.13761 5.73509-5.03028 5.73509-4.81561 5.73509-4.49004 4.97303-3.45966 4.75837-2.81209 4.2718-1.29871 4.10722-0.812143 4.10722 2.59385Z" fill="#231F20" fill-rule="evenodd" fill-opacity="1" transform="matrix(1 0 0 -1.00377 819.054 293.878)"/><path d="M0 0C0 0.268329 0 0.701234-0.432904 0.701234-0.812143 0.651145-0.647568 0.701234-1.08047 0.59748L-3.72799-0.0536658C-3.94623-0.107332-4.10722-0.325573-4.10722-0.701234L-4.10722-13.5667C-5.57051-12.6508-7.40588-11.7278-10.7582-11.7278-17.03-11.7278-19.7884-18.2213-19.7884-26.0065-19.7884-32.7075-17.1373-39.1939-11.3521-39.1939-7.35222-39.1939-4.7047-36.9221-3.40957-36.0026-3.19133-36.872-2.21819-39.1939-1.45971-39.1939-1.35238-39.1939-1.24505-39.1403-1.02681-39.0294L1.07689-37.7378C1.29514-37.6269 1.56704-37.5196 1.56704-37.3049 1.56704-36.9793 0.865809-35.949 0.593902-35.3014 0-33.949 0-32.3283 0-29.8954ZM-4.10722-32.3855C-5.40594-33.1941-7.78512-35.5697-10.5972-35.5697-14.9763-35.5697-15.3556-30.4357-15.3556-25.892-15.3556-20.6506-14.9227-15.352-10.2716-15.352-7.56688-15.352-5.83884-16.2178-4.10722-17.1373Z" fill="#231F20" fill-rule="evenodd" fill-opacity="1" transform="matrix(1 0 0 -1.00377 849.976 261.266)"/><path d="M0 0C-0.103754 0.164575-0.160997 0.325573-0.325573 0.325573-0.651145 0.325573-3.45966-1.88904-6.97298-1.88904-13.1374-1.88904-14.4325 4.05714-14.4325 7.3558L1.08047 7.3558C1.67437 7.3558 1.67437 7.7887 1.67437 8.5436 1.67437 13.1946 0.865809 21.9529-8.16436 21.9529-14.869 21.9529-18.8653 16.1677-18.8653 8.21803-18.8653 0-14.6508-5.4596-7.45955-5.51327-3.45966-5.51327 1.08047-3.29866 1.08047-2.70118 1.08047-2.54018 0.97314-2.43285 0.915897-2.26828ZM-14.4325 10.7045C-14.4325 13.4057-13.3521 18.597-8.37903 18.597-3.6779 18.597-2.75842 13.5166-2.75842 10.7045Z" fill="#231F20" fill-rule="evenodd" fill-opacity="1" transform="matrix(1 0 0 -1.00377 874.63 295.074)"/><path d="M0 0C-0.0500881 0.164575-0.0500881 0.32915-0.375661 0.32915-0.751322 0.32915-1.78171-0.375661-3.19133-0.375661-4.75837-0.375661-5.24494 0.923052-5.35227 1.51695-5.4596 2.16452-5.51327 4.91937-5.51327 6.59732L-5.51327 35.466C-5.51327 35.7343-5.51327 36.1672-5.88893 36.1672-6.27175 36.1171-6.10717 36.1672-6.54008 36.0634L-9.24126 35.4123C-9.46307 35.3586-9.62049 35.1404-9.62049 34.7647L-9.62049 6.70823C-9.62049 4.81561-9.62049 0.651145-8.86917-1.13056-8.21445-2.64751-6.42917-3.72799-3.78523-3.72799-1.78171-3.72799 0.812143-2.96951 0.812143-2.37561 0.812143-2.27185 0.758477-2.10728 0.704811-1.99995Z" fill="#231F20" fill-rule="evenodd" fill-opacity="1" transform="matrix(1 0 0 -1.00377 892.197 296.866)"/><path d="M0 0C-0.0536658 0.164575-0.0536658 0.32915-0.375661 0.32915-0.758477 0.32915-1.78528-0.375661-3.19133-0.375661-4.75837-0.375661-5.24494 0.923052-5.35227 1.51695-5.46318 2.16452-5.51327 4.91937-5.51327 6.59732L-5.51327 35.466C-5.51327 35.7343-5.51327 36.1672-5.89609 36.1672-6.27175 36.1171-6.11075 36.1672-6.54008 36.0634L-9.24483 35.4123C-9.46307 35.3586-9.62407 35.1404-9.62407 34.7647L-9.62407 6.70823C-9.62407 4.81561-9.62407 0.651145-8.86559-1.13056-8.21803-2.64751-6.43274-3.72799-3.78523-3.72799-1.78528-3.72799 0.808565-2.96951 0.808565-2.37561 0.808565-2.27185 0.758477-2.10728 0.701234-1.99995Z" fill="#231F20" fill-rule="evenodd" fill-opacity="1" transform="matrix(1 0 0 -1.00377 906.193 296.866)"/></g></g></g></g></svg>